<svg width="1040" height="1024" viewBox="0 0 1040 1024" fill="none" xmlns="http://www.w3.org/2000/svg">
<path d="M1031 969L720 656C782 582 813 496.667 813 400C813 327.333 795.167 260.333 759.5 199C723.833 137.667 675.167 89.1667 613.5 53.5C551.833 17.8333 484.833 0 412.5 0C340.167 0 273.333 17.8333 212 53.5C150.667 89.1667 102.167 137.667 66.5 199C30.8333 260.333 13 327.333 13 400C13 472.667 30.8333 539.667 66.5 601C102.167 662.333 150.667 710.833 212 746.5C273.333 782.167 340.333 800 413 800C512.333 800 599.667 767.333 675 702L985 1014C991.667 1020.67 999.333 1024 1008 1024C1016.67 1024 1024.17 1020.83 1030.5 1014.5C1036.83 1008.17 1040 1000.5 1040 991.5C1040 982.5 1037 975 1031 969ZM413 737C351.667 737 295.167 721.833 243.5 691.5C191.833 661.167 151 620.167 121 568.5C91 516.833 76 460.667 76 400C76 339.333 91 283.167 121 231.5C151 179.833 191.833 138.833 243.5 108.5C295.167 78.1667 351.5 63 412.5 63C473.5 63 529.833 78.1667 581.5 108.5C633.167 138.833 674 179.833 704 231.5C734 283.167 749 339.333 749 400C749 426 746 451.667 740 477C734 502.333 725.5 526 714.5 548C703.5 570 690.333 590.833 675 610.5C659.667 630.167 642.333 647.667 623 663C603.667 678.333 583 691.5 561 702.5C539 713.5 515.333 722 490 728C464.667 734 439 737 413 737Z" fill="black"/>
</svg>
